<mxfile host="app.diagrams.net" modified="2023-05-15T12:20:00.884Z" agent="Mozilla/5.0 (Macintosh; Intel Mac OS X 10_15_7) AppleWebKit/537.36 (KHTML, like Gecko) Chrome/113.0.0.0 Safari/537.36" etag="zr6rSGi-36p1PJ3jsz_8" version="21.2.9" type="device">
  <diagram name="Page-1" id="bMq-flaikTQhLTW3FIld">
    <mxGraphModel dx="1434" dy="795" grid="1" gridSize="10" guides="1" tooltips="1" connect="1" arrows="1" fold="1" page="1" pageScale="1" pageWidth="827" pageHeight="1169" math="0" shadow="0">
      <root>
        <mxCell id="0" />
        <mxCell id="1" parent="0" />
        <mxCell id="ZdhACyOKWBQS82JLlqKs-195" value="Utilizatorul are aplicatia instalata" style="rounded=1;whiteSpace=wrap;html=1;" vertex="1" parent="1">
          <mxGeometry x="354" y="10" width="120" height="60" as="geometry" />
        </mxCell>
        <mxCell id="ZdhACyOKWBQS82JLlqKs-198" value="Utilizatorul este redirectionat la pagina de Sign In" style="rounded=1;whiteSpace=wrap;html=1;" vertex="1" parent="1">
          <mxGeometry x="354" y="110" width="120" height="60" as="geometry" />
        </mxCell>
        <mxCell id="ZdhACyOKWBQS82JLlqKs-199" value="Are cont?" style="rhombus;whiteSpace=wrap;html=1;" vertex="1" parent="1">
          <mxGeometry x="374" y="230" width="80" height="80" as="geometry" />
        </mxCell>
        <mxCell id="ZdhACyOKWBQS82JLlqKs-200" value="Sunt credentialele valide?" style="rhombus;whiteSpace=wrap;html=1;" vertex="1" parent="1">
          <mxGeometry x="341" y="470" width="146" height="80" as="geometry" />
        </mxCell>
        <mxCell id="ZdhACyOKWBQS82JLlqKs-201" value="Isi introduce credentialele" style="rounded=1;whiteSpace=wrap;html=1;" vertex="1" parent="1">
          <mxGeometry x="354" y="350" width="120" height="60" as="geometry" />
        </mxCell>
        <mxCell id="ZdhACyOKWBQS82JLlqKs-202" value="Este redirectionat la pagina principala" style="rounded=1;whiteSpace=wrap;html=1;" vertex="1" parent="1">
          <mxGeometry x="354" y="610" width="120" height="60" as="geometry" />
        </mxCell>
        <mxCell id="ZdhACyOKWBQS82JLlqKs-203" value="Este redirectionat pe pagina de Sign Up" style="rounded=1;whiteSpace=wrap;html=1;" vertex="1" parent="1">
          <mxGeometry x="130" y="240" width="120" height="60" as="geometry" />
        </mxCell>
        <mxCell id="ZdhACyOKWBQS82JLlqKs-204" value="Completeaza toate campurile cu datele dorite pentru noul cont" style="rounded=1;whiteSpace=wrap;html=1;" vertex="1" parent="1">
          <mxGeometry x="130" y="350" width="120" height="60" as="geometry" />
        </mxCell>
        <mxCell id="ZdhACyOKWBQS82JLlqKs-205" value="Sunt datele valide?" style="rhombus;whiteSpace=wrap;html=1;" vertex="1" parent="1">
          <mxGeometry x="117" y="470" width="146" height="80" as="geometry" />
        </mxCell>
        <mxCell id="ZdhACyOKWBQS82JLlqKs-206" value="" style="endArrow=classic;html=1;rounded=0;exitX=0.5;exitY=1;exitDx=0;exitDy=0;entryX=0.5;entryY=0;entryDx=0;entryDy=0;" edge="1" parent="1" source="ZdhACyOKWBQS82JLlqKs-195" target="ZdhACyOKWBQS82JLlqKs-198">
          <mxGeometry width="50" height="50" relative="1" as="geometry">
            <mxPoint x="390" y="380" as="sourcePoint" />
            <mxPoint x="414" y="120" as="targetPoint" />
          </mxGeometry>
        </mxCell>
        <mxCell id="ZdhACyOKWBQS82JLlqKs-207" value="" style="endArrow=classic;html=1;rounded=0;exitX=0.5;exitY=1;exitDx=0;exitDy=0;entryX=0.5;entryY=0;entryDx=0;entryDy=0;" edge="1" parent="1" source="ZdhACyOKWBQS82JLlqKs-198" target="ZdhACyOKWBQS82JLlqKs-199">
          <mxGeometry width="50" height="50" relative="1" as="geometry">
            <mxPoint x="424" y="80" as="sourcePoint" />
            <mxPoint x="424" y="120" as="targetPoint" />
          </mxGeometry>
        </mxCell>
        <mxCell id="ZdhACyOKWBQS82JLlqKs-208" value="DA" style="endArrow=classic;html=1;rounded=0;exitX=0.5;exitY=1;exitDx=0;exitDy=0;entryX=0.5;entryY=0;entryDx=0;entryDy=0;" edge="1" parent="1" source="ZdhACyOKWBQS82JLlqKs-199" target="ZdhACyOKWBQS82JLlqKs-201">
          <mxGeometry width="50" height="50" relative="1" as="geometry">
            <mxPoint x="434" y="90" as="sourcePoint" />
            <mxPoint x="434" y="130" as="targetPoint" />
          </mxGeometry>
        </mxCell>
        <mxCell id="ZdhACyOKWBQS82JLlqKs-209" value="" style="endArrow=classic;html=1;rounded=0;exitX=0.5;exitY=1;exitDx=0;exitDy=0;entryX=0.5;entryY=0;entryDx=0;entryDy=0;" edge="1" parent="1" source="ZdhACyOKWBQS82JLlqKs-201" target="ZdhACyOKWBQS82JLlqKs-200">
          <mxGeometry width="50" height="50" relative="1" as="geometry">
            <mxPoint x="444" y="100" as="sourcePoint" />
            <mxPoint x="444" y="140" as="targetPoint" />
          </mxGeometry>
        </mxCell>
        <mxCell id="ZdhACyOKWBQS82JLlqKs-210" value="" style="endArrow=classic;html=1;rounded=0;entryX=0.5;entryY=0;entryDx=0;entryDy=0;" edge="1" parent="1" target="ZdhACyOKWBQS82JLlqKs-202">
          <mxGeometry width="50" height="50" relative="1" as="geometry">
            <mxPoint x="414" y="550" as="sourcePoint" />
            <mxPoint x="424" y="480" as="targetPoint" />
          </mxGeometry>
        </mxCell>
        <mxCell id="ZdhACyOKWBQS82JLlqKs-211" value="DA" style="edgeLabel;html=1;align=center;verticalAlign=middle;resizable=0;points=[];" vertex="1" connectable="0" parent="ZdhACyOKWBQS82JLlqKs-210">
          <mxGeometry x="-0.0333" y="2" relative="1" as="geometry">
            <mxPoint as="offset" />
          </mxGeometry>
        </mxCell>
        <mxCell id="ZdhACyOKWBQS82JLlqKs-212" value="NU" style="endArrow=classic;html=1;rounded=0;exitX=0;exitY=0.5;exitDx=0;exitDy=0;entryX=0;entryY=0.5;entryDx=0;entryDy=0;" edge="1" parent="1" source="ZdhACyOKWBQS82JLlqKs-200" target="ZdhACyOKWBQS82JLlqKs-198">
          <mxGeometry width="50" height="50" relative="1" as="geometry">
            <mxPoint x="434" y="430" as="sourcePoint" />
            <mxPoint x="434" y="490" as="targetPoint" />
            <Array as="points">
              <mxPoint x="310" y="510" />
              <mxPoint x="310" y="140" />
            </Array>
          </mxGeometry>
        </mxCell>
        <mxCell id="ZdhACyOKWBQS82JLlqKs-213" value="" style="endArrow=classic;html=1;rounded=0;exitX=0;exitY=0.5;exitDx=0;exitDy=0;entryX=1;entryY=0.5;entryDx=0;entryDy=0;" edge="1" parent="1" source="ZdhACyOKWBQS82JLlqKs-199" target="ZdhACyOKWBQS82JLlqKs-203">
          <mxGeometry width="50" height="50" relative="1" as="geometry">
            <mxPoint x="444" y="440" as="sourcePoint" />
            <mxPoint x="444" y="500" as="targetPoint" />
          </mxGeometry>
        </mxCell>
        <mxCell id="ZdhACyOKWBQS82JLlqKs-214" value="NU" style="edgeLabel;html=1;align=center;verticalAlign=middle;resizable=0;points=[];" vertex="1" connectable="0" parent="ZdhACyOKWBQS82JLlqKs-213">
          <mxGeometry x="-0.4194" y="3" relative="1" as="geometry">
            <mxPoint as="offset" />
          </mxGeometry>
        </mxCell>
        <mxCell id="ZdhACyOKWBQS82JLlqKs-215" value="" style="endArrow=classic;html=1;rounded=0;exitX=0.5;exitY=1;exitDx=0;exitDy=0;entryX=0.5;entryY=0;entryDx=0;entryDy=0;" edge="1" parent="1" source="ZdhACyOKWBQS82JLlqKs-203" target="ZdhACyOKWBQS82JLlqKs-204">
          <mxGeometry width="50" height="50" relative="1" as="geometry">
            <mxPoint x="454" y="450" as="sourcePoint" />
            <mxPoint x="454" y="510" as="targetPoint" />
          </mxGeometry>
        </mxCell>
        <mxCell id="ZdhACyOKWBQS82JLlqKs-216" value="" style="endArrow=classic;html=1;rounded=0;exitX=0.5;exitY=1;exitDx=0;exitDy=0;entryX=0.5;entryY=0;entryDx=0;entryDy=0;" edge="1" parent="1" source="ZdhACyOKWBQS82JLlqKs-204" target="ZdhACyOKWBQS82JLlqKs-205">
          <mxGeometry width="50" height="50" relative="1" as="geometry">
            <mxPoint x="464" y="460" as="sourcePoint" />
            <mxPoint x="464" y="520" as="targetPoint" />
          </mxGeometry>
        </mxCell>
        <mxCell id="ZdhACyOKWBQS82JLlqKs-217" value="" style="endArrow=classic;html=1;rounded=0;exitX=1;exitY=0.5;exitDx=0;exitDy=0;entryX=0;entryY=0.75;entryDx=0;entryDy=0;" edge="1" parent="1" source="ZdhACyOKWBQS82JLlqKs-205" target="ZdhACyOKWBQS82JLlqKs-198">
          <mxGeometry width="50" height="50" relative="1" as="geometry">
            <mxPoint x="474" y="470" as="sourcePoint" />
            <mxPoint x="474" y="530" as="targetPoint" />
            <Array as="points">
              <mxPoint x="280" y="510" />
              <mxPoint x="280" y="155" />
            </Array>
          </mxGeometry>
        </mxCell>
        <mxCell id="ZdhACyOKWBQS82JLlqKs-218" value="DA" style="edgeLabel;html=1;align=center;verticalAlign=middle;resizable=0;points=[];" vertex="1" connectable="0" parent="ZdhACyOKWBQS82JLlqKs-217">
          <mxGeometry x="-0.6637" y="-3" relative="1" as="geometry">
            <mxPoint as="offset" />
          </mxGeometry>
        </mxCell>
        <mxCell id="ZdhACyOKWBQS82JLlqKs-219" value="NU" style="endArrow=classic;html=1;rounded=0;exitX=0;exitY=0.5;exitDx=0;exitDy=0;entryX=0;entryY=0.5;entryDx=0;entryDy=0;" edge="1" parent="1" source="ZdhACyOKWBQS82JLlqKs-205" target="ZdhACyOKWBQS82JLlqKs-203">
          <mxGeometry width="50" height="50" relative="1" as="geometry">
            <mxPoint x="484" y="480" as="sourcePoint" />
            <mxPoint x="484" y="540" as="targetPoint" />
            <Array as="points">
              <mxPoint x="80" y="510" />
              <mxPoint x="80" y="270" />
            </Array>
          </mxGeometry>
        </mxCell>
      </root>
    </mxGraphModel>
  </diagram>
</mxfile>
